<?xml version="1.0" standalone="no"?>
<!DOCTYPE svg PUBLIC "-//W3C//DTD SVG 20010904//EN"
 "http://www.w3.org/TR/2001/REC-SVG-20010904/DTD/svg10.dtd">
<svg version="1.0" xmlns="http://www.w3.org/2000/svg"
 width="3000.000000pt" height="2000.000000pt" viewBox="0 0 3000.000000 2000.000000"
 preserveAspectRatio="xMidYMid meet">

<g transform="translate(0.000000,2000.000000) scale(0.100000,-0.100000)"
fill="#000000" stroke="none">
<path d="M27335 13883 c-328 -324 -1768 -1748 -1801 -1780 -9 -10 -72 -13
-242 -13 l-229 0 -284 95 c-156 52 -291 95 -300 95 -9 0 -122 -41 -250 -91
-129 -50 -241 -93 -249 -95 -8 -3 -64 27 -125 65 -60 38 -162 102 -225 141
-63 39 -149 93 -190 120 -41 27 -106 68 -145 91 -38 23 -106 66 -150 94 -44
29 -116 75 -161 103 l-81 50 -82 -68 c-45 -38 -108 -91 -140 -119 -32 -28 -71
-61 -87 -73 -16 -12 -34 -27 -40 -33 -6 -5 -37 -32 -69 -60 -32 -27 -66 -57
-75 -65 -9 -8 -38 -33 -65 -55 -27 -22 -97 -80 -155 -130 -58 -49 -130 -110
-160 -135 -29 -25 -103 -88 -164 -140 -61 -52 -154 -131 -206 -175 -52 -44
-100 -84 -106 -90 -6 -5 -35 -30 -64 -55 -30 -25 -83 -71 -119 -102 l-66 -58
-317 0 -316 0 -179 -86 c-98 -48 -214 -103 -258 -124 -44 -21 -145 -69 -225
-108 -127 -61 -328 -158 -815 -392 -71 -34 -191 -92 -265 -128 -362 -174 -450
-216 -510 -244 -36 -17 -148 -71 -250 -121 -102 -49 -223 -107 -270 -129 -72
-34 -203 -111 -300 -178 -14 -9 -74 -47 -135 -85 -60 -37 -146 -91 -190 -120
-44 -28 -96 -60 -115 -71 -19 -10 -39 -23 -45 -27 -5 -5 -46 -31 -90 -59 -44
-28 -102 -66 -130 -83 -27 -18 -158 -100 -290 -183 -366 -229 -608 -381 -625
-392 -76 -50 -158 -100 -225 -135 -44 -23 -111 -59 -150 -80 -38 -21 -108 -58
-155 -82 -47 -25 -89 -49 -95 -53 -5 -4 -59 -34 -120 -65 -60 -32 -150 -80
-200 -106 -49 -26 -105 -56 -122 -65 -18 -9 -30 -21 -26 -27 3 -6 1 -7 -6 -3
-6 4 -24 0 -39 -10 -15 -10 -70 -40 -122 -66 -52 -27 -131 -68 -175 -92 -44
-24 -135 -72 -203 -107 -73 -39 -120 -69 -118 -76 3 -7 -1 -10 -8 -7 -8 3 -42
-10 -77 -28 -56 -29 -64 -37 -63 -61 1 -27 -18 -38 -31 -17 -3 5 1 10 9 10 9
0 16 5 16 10 0 6 -9 10 -20 10 -11 0 -20 -4 -20 -10 0 -5 -8 -10 -17 -10 -10
0 -26 -7 -37 -15 -18 -13 -17 -14 6 -20 20 -5 24 -11 20 -36 -4 -28 -3 -29 33
-29 20 0 42 -6 49 -13 10 -9 757 -12 3675 -12 2436 0 3665 -3 3666 -10 2 -5 6
-28 9 -49 4 -30 2 -36 -6 -28 -7 7 -16 12 -21 12 -6 0 2 -12 17 -27 l27 -27
-43 -17 c-24 -9 -56 -15 -73 -13 -21 3 -24 2 -12 -4 14 -6 5 -12 -40 -27 -32
-10 -62 -21 -68 -24 -5 -3 -18 -4 -27 -3 -10 2 -18 -1 -18 -7 0 -8 -96 -44
-125 -46 -5 0 -30 -10 -55 -22 -25 -12 -79 -32 -120 -43 -41 -12 -91 -27 -110
-33 -19 -6 -39 -10 -44 -8 -5 1 -12 -3 -16 -9 -3 -5 -33 -17 -66 -25 -59 -15
-165 -48 -424 -130 -74 -24 -166 -52 -203 -64 -37 -12 -73 -19 -79 -15 -7 4
-8 3 -4 -4 4 -7 2 -12 -5 -12 -15 0 -203 -56 -234 -70 -30 -13 -324 -100 -575
-170 -41 -11 -102 -30 -135 -40 -33 -11 -69 -21 -80 -23 -85 -15 -652 -205
-708 -237 -9 -6 -45 -21 -80 -34 -154 -58 -486 -243 -597 -333 -8 -7 -42 -34
-75 -60 -93 -74 -104 -83 -179 -153 -239 -219 -428 -359 -621 -461 -155 -82
-267 -120 -555 -189 -151 -36 -313 -97 -477 -181 -83 -42 -155 -73 -160 -69
-4 4 -30 13 -58 19 -96 23 -405 155 -425 181 -3 4 -57 35 -120 70 -63 35 -135
75 -160 90 -84 50 -680 343 -1035 510 -60 29 -146 69 -190 90 -44 21 -118 56
-165 78 -47 22 -148 70 -225 107 -77 37 -183 88 -235 112 -89 42 -230 112
-310 154 -19 10 -57 29 -85 42 -88 42 -309 159 -325 172 -8 7 -39 25 -67 40
-29 15 -50 31 -47 36 3 5 -2 6 -11 3 -11 -4 -42 21 -103 83 -115 118 -145 128
-382 127 -198 0 -269 -12 -702 -120 -166 -41 -313 -74 -328 -74 -27 0 -28 2
-38 83 -6 45 -27 188 -47 317 -20 129 -47 307 -60 395 -41 274 -134 889 -140
920 -3 17 -21 136 -40 265 -19 129 -39 262 -45 295 -5 33 -21 136 -35 230 -22
146 -34 204 -35 169 0 -11 -5 -44 -65 -449 -26 -170 -53 -355 -60 -410 -8 -55
-30 -208 -50 -340 -46 -312 -66 -447 -109 -745 -20 -135 -49 -335 -66 -445
-16 -110 -35 -237 -41 -282 -11 -76 -14 -83 -34 -83 -21 0 -23 7 -34 98 -12
93 -43 320 -96 702 -13 96 -38 276 -55 400 -17 124 -44 322 -60 440 -16 118
-40 298 -54 400 -14 102 -41 298 -60 435 -19 138 -47 341 -62 453 -15 111 -29
201 -31 198 -2 -2 -13 -73 -24 -157 -11 -85 -37 -287 -59 -449 -22 -162 -53
-398 -70 -525 -17 -126 -46 -349 -65 -495 -19 -146 -60 -454 -90 -685 -31
-231 -69 -516 -84 -632 -15 -117 -30 -215 -32 -218 -3 -2 -29 123 -58 278 -29
155 -64 336 -76 402 -24 122 -59 306 -115 605 -17 91 -35 185 -40 210 -5 25
-21 108 -35 185 -52 282 -88 465 -92 461 -4 -4 -67 -335 -104 -546 -11 -63
-40 -225 -65 -360 -25 -135 -61 -330 -80 -435 -35 -191 -78 -426 -130 -715
-15 -85 -28 -156 -29 -158 -1 -1 -87 -11 -191 -22 -104 -11 -279 -31 -389 -45
-457 -59 -758 -40 -1010 62 -84 34 -228 112 -345 187 -349 224 -587 334 -885
411 -38 10 -73 21 -77 24 -4 4 -26 128 -47 276 -22 149 -45 299 -50 335 -6 36
-19 126 -30 200 -11 74 -34 224 -51 333 -16 109 -30 209 -30 222 0 13 -4 26
-9 29 -5 3 -13 -29 -19 -72 -39 -294 -176 -1228 -181 -1234 -3 -4 -49 0 -102
9 l-96 16 -12 106 c-16 145 -151 1281 -206 1736 -25 204 -52 426 -60 495 -82
690 -84 705 -90 698 -2 -2 -15 -107 -30 -233 -14 -127 -48 -423 -76 -660 -120
-1035 -162 -1400 -199 -1730 -16 -143 -32 -277 -36 -298 l-6 -37 -151 6 c-84
4 -154 8 -155 10 -5 3 -17 107 -102 904 -60 562 -110 1027 -125 1160 -8 74
-24 218 -35 320 -100 943 -118 1102 -125 1108 -3 3 -5 -2 -5 -10 0 -9 -20
-206 -44 -439 -25 -233 -68 -644 -96 -914 -27 -269 -59 -573 -70 -675 -21
-202 -121 -1164 -143 -1377 -7 -73 -16 -135 -19 -138 -2 -3 -69 -11 -149 -19
-103 -11 -145 -12 -150 -4 -4 6 -10 36 -14 67 -3 31 -10 81 -15 111 -6 30 -19
116 -30 190 -10 74 -33 227 -50 340 -59 392 -70 467 -115 775 -25 171 -49 337
-55 370 -5 33 -14 93 -21 133 -6 40 -13 72 -14 70 -2 -2 -31 -192 -65 -423
-90 -626 -240 -1673 -240 -1678 0 -7 -145 -16 -430 -27 -658 -25 -1003 -39
-1137 -46 l-113 -7 0 -3583 0 -3584 14995 0 14995 0 0 6168 0 6167 -130 200
c-71 110 -148 229 -170 265 -42 67 -204 319 -465 722 -218 337 -272 421 -289
442 -15 19 -1 20 -386 -13 -103 -9 -93 -12 -258 58 -40 17 -88 37 -105 45
-107 49 -467 196 -478 196 -8 0 -180 -165 -384 -367z m-4588 -5505 c-3 -8 -6
-5 -6 6 -1 11 2 17 5 13 3 -3 4 -12 1 -19z m6960 -60 c-3 -8 -6 -5 -6 6 -1 11
2 17 5 13 3 -3 4 -12 1 -19z m-7190 -35 c-3 -10 -5 -4 -5 12 0 17 2 24 5 18 2
-7 2 -21 0 -30z m7211 -64 c-3 -8 -7 -3 -11 10 -4 17 -3 21 5 13 5 -5 8 -16 6
-23z m-2820 -16 c-10 -2 -28 -2 -40 0 -13 2 -5 4 17 4 22 1 32 -1 23 -4z
m-3171 -65 c-3 -8 -6 -5 -6 6 -1 11 2 17 5 13 3 -3 4 -12 1 -19z m-9037 -8 c0
-5 -5 -10 -11 -10 -5 0 -7 5 -4 10 3 6 8 10 11 10 2 0 4 -4 4 -10z m-57 -25
c-3 -9 -8 -14 -10 -11 -3 3 -2 9 2 15 9 16 15 13 8 -4z m11224 9 c-3 -3 -12
-4 -19 -1 -8 3 -5 6 6 6 11 1 17 -2 13 -5z m-4216 -50 c-5 -21 -9 -30 -10 -19
-1 24 10 67 15 62 3 -2 0 -22 -5 -43z m2109 3 c0 -7 -4 -6 -10 3 -8 12 -10 12
-10 1 0 -8 -3 -12 -6 -8 -9 9 6 28 17 22 5 -4 9 -12 9 -18z m1770 -37 c8 -5
11 -10 5 -10 -5 0 -17 5 -25 10 -8 5 -10 10 -5 10 6 0 17 -5 25 -10z m-1633
-47 c-3 -10 -5 -2 -5 17 0 19 2 27 5 18 2 -10 2 -26 0 -35z m1010 10 c-3 -10
-5 -4 -5 12 0 17 2 24 5 18 2 -7 2 -21 0 -30z m-1160 -10 c-3 -10 -5 -4 -5 12
0 17 2 24 5 18 2 -7 2 -21 0 -30z m-2120 -5 c-3 -8 -6 -5 -6 6 -1 11 2 17 5
13 3 -3 4 -12 1 -19z m1030 -40 c-2 -13 -4 -3 -4 22 0 25 2 35 4 23 2 -13 2
-33 0 -45z m1190 30 c-3 -7 -5 -2 -5 12 0 14 2 19 5 13 2 -7 2 -19 0 -25z m31
-34 c1 11 4 17 7 14 4 -3 3 -18 -1 -34 -6 -25 -8 -26 -15 -9 -4 11 -7 38 -7
60 l1 40 7 -45 c4 -25 8 -36 8 -26z m1060 -9 c-2 -81 -12 -88 -21 -15 -4 30
-3 38 3 25 7 -16 9 -11 9 23 1 23 3 42 6 42 2 0 4 -34 3 -75z m19 53 c-3 -8
-6 -5 -6 6 -1 11 2 17 5 13 3 -3 4 -12 1 -19z m500 16 c-3 -3 -12 -4 -19 -1
-8 3 -5 6 6 6 11 1 17 -2 13 -5z m-47 -8 c0 -2 -9 -6 -20 -9 -11 -3 -18 -1
-14 4 5 9 34 13 34 5z m-116 -37 c-28 -11 -41 -10 -24 1 13 8 13 10 -2 10 -9
0 -19 4 -22 9 -4 5 10 4 30 -2 30 -9 33 -12 18 -18z m-2704 -9 c0 -16 -3 -30
-7 -30 -5 0 -8 14 -8 30 0 17 3 30 8 30 4 0 7 -13 7 -30z m32 -18 c-7 -2 -12
-11 -13 -20 0 -10 -3 -12 -5 -5 -3 7 0 22 7 35 9 17 14 19 17 8 3 -7 0 -16 -6
-18z m-8287 8 c15 -6 11 -7 -17 -7 -23 1 -33 4 -25 9 14 9 16 9 42 -2z m8358
-25 c-3 -9 -8 -14 -10 -11 -3 3 -2 9 2 15 9 16 15 13 8 -4z m2477 11 c0 -7
-101 -39 -106 -34 -2 3 17 12 43 21 52 17 63 19 63 13z m-205 -36 c-4 -6 6
-11 22 -11 18 -1 22 -3 10 -6 -24 -6 -50 4 -42 17 3 5 8 10 11 10 3 0 2 -4 -1
-10z m-10775 -15 c-7 -8 -17 -15 -22 -15 -6 0 -5 7 2 15 7 8 17 15 22 15 6 0
5 -7 -2 -15z m8407 -7 c-3 -8 -6 -5 -6 6 -1 11 2 17 5 13 3 -3 4 -12 1 -19z
m20 0 c-3 -8 -6 -5 -6 6 -1 11 2 17 5 13 3 -3 4 -12 1 -19z m-1000 -20 c-3 -7
-5 -2 -5 12 0 14 2 19 5 13 2 -7 2 -19 0 -25z m1070 26 c-3 -3 -12 -4 -19 -1
-8 3 -5 6 6 6 11 1 17 -2 13 -5z m1183 -24 c0 -11 -4 -20 -10 -20 -5 0 -10 9
-10 20 0 11 5 20 10 20 6 0 10 -9 10 -20z m-9653 4 c-3 -3 -12 -4 -19 -1 -8 3
-5 6 6 6 11 1 17 -2 13 -5z m7390 -76 c-3 -8 -6 -5 -6 6 -1 11 2 17 5 13 3 -3
4 -12 1 -19z m-7590 6 c-3 -3 -12 -4 -19 -1 -8 3 -5 6 6 6 11 1 17 -2 13 -5z
m7504 -26 c0 -10 2 -10 6 0 5 14 33 17 33 3 0 -5 -6 -11 -12 -14 -8 -2 -13
-22 -12 -53 0 -27 -1 -39 -3 -26 -3 17 -12 22 -36 23 -18 1 -35 1 -39 0 -5 0
-8 17 -8 39 0 39 1 40 35 40 21 0 35 -5 36 -12z m79 -14 c0 -3 -9 -19 -21 -35
-18 -26 -20 -34 -9 -60 12 -28 8 -50 -6 -36 -9 9 -9 111 0 126 7 11 36 16 36
5z m-78 -167 c-63 -25 -115 -5 -57 21 32 15 65 15 65 1 0 -5 4 -8 9 -5 5 3 7
16 4 29 -4 20 -4 20 9 -3 14 -24 13 -25 -30 -43z m-12355 -2633 c-3 -3 -12 -4
-19 -1 -8 3 -5 6 6 6 11 1 17 -2 13 -5z m290 -70 c-3 -3 -12 -4 -19 -1 -8 3
-5 6 6 6 11 1 17 -2 13 -5z m260 -80 c-3 -3 -12 -4 -19 -1 -8 3 -5 6 6 6 11 1
17 -2 13 -5z m60 -40 c-3 -3 -12 -4 -19 -1 -8 3 -5 6 6 6 11 1 17 -2 13 -5z
m190 -50 c-3 -3 -12 -4 -19 -1 -8 3 -5 6 6 6 11 1 17 -2 13 -5z m76 -31 c-7
-2 -19 -2 -25 0 -7 3 -2 5 12 5 14 0 19 -2 13 -5z m174 -39 c-3 -3 -12 -4 -19
-1 -8 3 -5 6 6 6 11 1 17 -2 13 -5z m-40 -10 c-3 -3 -12 -4 -19 -1 -8 3 -5 6
6 6 11 1 17 -2 13 -5z m53 -14 c18 -12 2 -12 -25 0 -13 6 -15 9 -5 9 8 0 22
-4 30 -9z m80 -20 c11 -8 7 -9 -15 -4 -37 8 -45 14 -19 14 10 0 26 -5 34 -10z
m60 -30 c11 -8 7 -9 -15 -4 -37 8 -45 14 -19 14 10 0 26 -5 34 -10z m67 4 c-3
-3 -12 -4 -19 -1 -8 3 -5 6 6 6 11 1 17 -2 13 -5z m53 -14 c8 -5 11 -10 5 -10
-5 0 -17 5 -25 10 -8 5 -10 10 -5 10 6 0 17 -5 25 -10z m-46 -8 c3 -5 -8 -6
-25 -4 -16 2 -29 6 -29 8 0 8 49 4 54 -4z m102 -29 c-3 -6 0 -14 7 -17 9 -3 9
-5 0 -5 -6 -1 -15 4 -18 9 -3 6 -16 10 -28 10 -12 0 -27 4 -34 8 -6 4 9 7 33
7 30 0 43 -4 40 -12z m131 -31 c6 -4 -10 -7 -35 -8 -32 -1 -41 1 -27 7 26 10
47 10 62 1z m113 -2 c11 -8 7 -9 -15 -4 -37 8 -45 14 -19 14 10 0 26 -5 34
-10z m3955 -29 c-6 -5 -25 10 -25 20 0 5 6 4 14 -3 8 -7 12 -15 11 -17z
m-4043 1 c26 -10 50 -21 54 -25 10 -10 -77 17 -102 31 -29 17 -5 14 48 -6z
m48 8 c8 -5 11 -10 5 -10 -5 0 -17 5 -25 10 -8 5 -10 10 -5 10 6 0 17 -5 25
-10z m50 -50 c0 -5 -7 -7 -15 -4 -8 4 -15 8 -15 10 0 2 7 4 15 4 8 0 15 -4 15
-10z m140 -6 c9 -2 17 -17 18 -33 l2 -30 -59 22 c-33 12 -55 25 -49 28 7 4 1
9 -13 12 -13 2 1 4 31 4 30 0 62 -1 70 -3z m3663 -1 c-7 -2 -19 -2 -25 0 -7 3
-2 5 12 5 14 0 19 -2 13 -5z m64 -20 c-21 -21 -29 -25 -39 -15 -6 6 -8 15 -4
19 4 4 10 2 15 -5 5 -8 12 -6 24 8 9 11 20 20 24 20 4 0 -5 -12 -20 -27z m-57
-37 c0 -16 -38 -57 -91 -97 -19 -15 -50 -41 -69 -58 -23 -20 -42 -29 -55 -25
-16 4 -17 3 -5 -5 13 -9 12 -12 -5 -25 -21 -15 -35 -27 -134 -114 -105 -93
-288 -279 -336 -343 -11 -14 -43 -52 -71 -85 -29 -32 -71 -81 -94 -109 -23
-27 -73 -82 -111 -121 l-69 -71 -127 44 c-112 39 -224 73 -239 73 -3 0 -2 5 2
12 4 6 3 8 -4 4 -9 -5 -540 163 -607 193 -11 5 -42 17 -70 26 -270 93 -775
332 -758 358 3 6 1 7 -5 3 -6 -3 -75 25 -154 63 -79 38 -153 72 -166 76 -12 3
-20 11 -17 16 3 5 0 6 -8 3 -8 -3 -47 10 -86 28 -53 24 -67 34 -54 39 11 4 1
6 -22 6 -22 0 -64 11 -95 25 -30 14 -64 28 -74 32 -10 3 -16 9 -13 12 3 4 14
3 24 -1 22 -10 32 -13 58 -18 11 -2 14 -2 8 0 -18 6 -16 23 2 23 8 0 15 5 15
10 0 7 543 10 1698 8 1614 -3 1699 -2 1694 15 -3 12 2 17 17 17 11 0 21 -6 21
-14z m-3462 -27 c-12 -8 -136 -4 -144 4 -3 2 31 4 75 4 44 -1 75 -4 69 -8z"/>
<path d="M21475 7580 l-20 -9 20 0 c11 0 27 4 35 9 13 9 13 10 0 9 -8 0 -24
-4 -35 -9z"/>
<path d="M10885 4380 c-25 -11 1 -11 35 0 20 6 21 8 5 8 -11 0 -29 -3 -40 -8z"/>
<path d="M10925 4360 c3 -5 11 -10 16 -10 6 0 7 5 4 10 -3 6 -11 10 -16 10 -6
0 -7 -4 -4 -10z"/>
<path d="M14508 4273 c-26 -31 -31 -43 -14 -37 9 3 16 12 16 20 0 8 6 14 14
14 8 0 18 5 21 10 11 17 -21 11 -37 -7z"/>
<path d="M11308 4233 c7 -3 16 -2 19 1 4 3 -2 6 -13 5 -11 0 -14 -3 -6 -6z"/>
<path d="M11326 4221 c-11 -4 -15 -10 -10 -13 5 -4 18 0 29 8 20 15 12 17 -19
5z"/>
<path d="M14433 4207 c-44 -30 -42 -43 2 -15 19 13 35 26 35 31 0 9 0 9 -37
-16z"/>
<path d="M11546 4150 c-21 -4 -48 -5 -60 -3 -20 5 -19 4 3 -12 18 -14 25 -15
31 -5 8 12 19 11 65 -5 16 -6 17 -5 5 4 -13 10 -13 12 0 21 17 11 12 11 -44 0z"/>
<path d="M11530 4116 c0 -2 7 -6 15 -10 8 -3 15 -1 15 4 0 6 -7 10 -15 10 -8
0 -15 -2 -15 -4z"/>
<path d="M11667 4074 c7 -3 10 -11 7 -19 -3 -7 -1 -16 5 -20 7 -3 8 0 5 9 -4
11 0 16 12 17 18 0 17 1 -1 9 -11 5 -24 9 -30 9 -5 -1 -5 -3 2 -5z"/>
<path d="M11870 3980 c20 -13 33 -13 25 0 -3 6 -14 10 -23 10 -15 0 -15 -2 -2
-10z"/>
<path d="M11848 3953 c7 -3 16 -2 19 1 4 3 -2 6 -13 5 -11 0 -14 -3 -6 -6z"/>
<path d="M13959 7755 c-3 -2 -14 -6 -25 -8 -32 -5 -171 -77 -148 -77 11 0 29
6 39 14 15 11 22 11 44 0 30 -16 45 -18 37 -5 -4 5 0 11 6 14 8 2 9 8 4 13 -5
5 -11 4 -13 -3 -6 -16 -36 -17 -31 -2 2 7 22 19 45 28 37 14 65 31 51 31 -2 0
-7 -2 -9 -5z"/>
<path d="M13730 7653 c-14 -7 -18 -13 -10 -13 17 0 47 17 40 23 -3 2 -16 -2
-30 -10z"/>
<path d="M13745 7630 c-3 -5 -1 -10 4 -10 6 0 11 5 11 10 0 6 -2 10 -4 10 -3
0 -8 -4 -11 -10z"/>
<path d="M13658 7612 c-16 -10 -28 -20 -28 -24 0 -14 31 -8 36 7 4 8 11 12 17
8 6 -3 7 -1 3 6 -6 9 0 10 21 6 21 -5 24 -4 13 4 -19 14 -29 13 -62 -7z"/>
<path d="M13573 7566 c-13 -6 -23 -14 -23 -18 0 -5 -8 -8 -17 -9 -10 0 -13 -3
-6 -5 6 -3 23 2 37 11 14 9 30 14 35 10 7 -3 8 0 5 9 -3 9 -7 15 -8 15 0 -1
-11 -6 -23 -13z"/>
<path d="M21370 7550 c0 -13 11 -13 30 0 12 8 11 10 -7 10 -13 0 -23 -4 -23
-10z"/>
<path d="M13585 7530 c-3 -5 -1 -10 4 -10 6 0 11 5 11 10 0 6 -2 10 -4 10 -3
0 -8 -4 -11 -10z"/>
<path d="M13463 7509 c-18 -12 -33 -22 -33 -24 0 -8 47 10 60 23 13 13 15 12
22 -9 l7 -24 -2 24 c-3 33 -16 35 -54 10z"/>
<path d="M21187 7507 c-22 -7 -36 -15 -32 -19 4 -4 18 -2 32 3 30 11 45 3 23
-12 -19 -13 22 -2 65 17 30 14 30 14 -15 9 -32 -4 -39 -2 -25 4 29 14 -2 12
-48 -2z"/>
<path d="M13389 7463 c-13 -15 -12 -15 9 -4 23 12 28 21 13 21 -5 0 -15 -7
-22 -17z"/>
<path d="M13470 7460 c0 -5 5 -10 10 -10 6 0 10 5 10 10 0 6 -4 10 -10 10 -5
0 -10 -4 -10 -10z"/>
<path d="M21033 7428 c8 -4 27 -3 43 1 26 8 25 9 -13 8 -25 -1 -37 -4 -30 -9z"/>
<path d="M20975 7420 c3 -5 1 -10 -4 -10 -6 0 -11 -4 -11 -10 0 -17 19 -11 30
10 9 16 8 20 -5 20 -9 0 -13 -4 -10 -10z"/>
<path d="M20778 7353 c7 -3 16 -2 19 1 4 3 -2 6 -13 5 -11 0 -14 -3 -6 -6z"/>
<path d="M20828 7343 c7 -3 16 -2 19 1 4 3 -2 6 -13 5 -11 0 -14 -3 -6 -6z"/>
<path d="M13080 7299 c0 -5 5 -7 10 -4 6 3 10 8 10 11 0 2 -4 4 -10 4 -5 0
-10 -5 -10 -11z"/>
<path d="M20463 7263 c9 -2 17 -9 17 -14 0 -6 5 -7 11 -3 14 8 -8 24 -31 23
-11 -1 -10 -3 3 -6z"/>
<path d="M12840 7169 c0 -5 5 -7 10 -4 6 3 10 8 10 11 0 2 -4 4 -10 4 -5 0
-10 -5 -10 -11z"/>
</g>
</svg>
